<svg xmlns="http://www.w3.org/2000/svg" viewBox="0 0 192 192"><defs><style>.cls-1{fill:#0277bd;}.cls-2,.cls-7{fill:#263238;}.cls-2{opacity:0.15;}.cls-3{fill:#ffca28;}.cls-4{fill:#e53935;}.cls-5{fill:#fff;}.cls-6{fill:#00b0ff;}</style></defs><title>goofy</title><g id="goofy"><g id="goofy-2" data-name="goofy"><circle id="label" class="cls-1" cx="96" cy="96" r="88"/><g id="shadow"><path class="cls-2" d="M179.19,122.63l-.34-.34-.34-.34-.34-.34-.34-.34-.34-.34-.34-.34-.34-.34-.34-.34-.34-.34-.34-.34-.34-.34-.34-.34-.34-.34-.34-.34-.34-.34-.34-.34-.34-.34-.34-.34-.34-.34-.34-.34-.34-.34-.34-.34-.34-.34-.34-.34-.34-.34-.34-.34-.34-.34-.34-.34-.34-.34-.34-.34-.34-.34-.34-.34-.34-.34-.34-.34-.34-.34-.34-.34-.34-.34-.34-.34-.34-.34-.34-.34-.34-.34-.34-.34-.34-.34-.34-.34-.34-.34-.34-.34-.34-.34-.34-.34-.34-.34-.34-.34-.34-.34-.34-.34-.34-.34-.34-.34-.34-.34-.34-.34-.34-.34-.34-.34-.34-.34-.34-.34-.34-.34-.34-.34-.34-.34-.34-.34-.34-.34-.34-.34-.34-.34-.34-.34-.34-.34-.34-.34-.34-.34-.34-.34-.34-.34-.34-.34-.34-.34-.34-.34-.34-.34-.34-.34-.34-.34-.34-.34-.34-.34-.34-.34-.34-.34-.34-.34-.34-.34-.34-.34-.34-.34-.34-.34-.34-.34L149,92.4l-.34-.34-.34-.34L148,91.4l-.34-.34-.34-.34-.34-.34-.34-.34-.34-.34-.34-.34L145.6,89l-.34-.34-.34-.34L144.6,88l-.34-.34-.34-.34-.34-.34-.34-.34-.34-.34-.34-.34-.34-.34-.34-.34-.34-.34-.34-.34-.34-.34-.34-.34-.34-.34-.34-.34-.34-.34-.34-.34-.34-.34-.34-.34-.34-.34-.34-.34-.34-.34-.34-.34-.34-.34-.34-.34-.34-.34-.34-.34-.34-.34-.34-.34-.34-.34-.34-.34-.34-.34-.34-.34-.34-.34-.34-.34-.34-.34-.34-.34-.34-.34-.34-.34-.34-.34-.34-.34-.34-.34-.34-.34-.34-.34-.34-.34-.34-.34-.34-.34-.34-.34-.34-.34-.34-.34-.34-.34-.34-.34-.34-.34-.34-.34-.34-.34-.34-.34-.34-.34-.34-.34-.34-.34-.34-.34-.34-.34a40,40,0,1,0-56.56,56.56l.34.34.34.34.34.34.34.34.34.34.34.34.34.34.34.34.34.34.34.34.34.34.34.34.34.34.34.34.34.34.34.34.34.34.34.34.34.34.34.34.34.34.34.34.34.34.34.34.34.34.34.34.34.34.34.34.34.34.34.34.34.34.34.34.34.34.34.34.34.34.34.34.34.34.34.34.34.34.34.34.34.34.34.34.34.34.34.34.34.34.34.34.34.34.34.34.34.34.34.34.34.34.34.34.34.34.34.34.34.34.34.34.34.34.34.34.34.34.34.34.34.34.34.34.34.34.34.34.34.34.34.34.34.34.34.34.34.34.34.34.34.34.34.34.34.34.34.34.34.34.34.34.34.34.34.34.34.34.34.34.34.34.34.34.34.34.34.34.34.34.34.34.34.34.34.34.34.34.34.34.34.34.34.34.34.34.34.34.34.34.34.34.34.34.34.34.34.34.34.34.34.34.34.34.34.34.34.34.34.34.34.34.34.34.34.34.34.34.34.34.34.34.34.34.34.34.34.34.34.34.34.34.34.34.34.34.34.34.34.34.34.34.34.34.34.34.34.34.34.34.34.34.34.34.34.34.34.34.34.34.34.34.34.34.34.34.34.34.34.34.34.34.34.34.34.34.34.34.34.34.34.34.34.34.34.34.34.34.34.34.34.34.34.34.34.34.34.34.34.34.34.34.34.34.34.34.34.34.34.34.34.34.34.34.34.34.34.34.34.34.34.34.34.34.34.34.34.34.2.2a88.21,88.21,0,0,0,56.56-56.56l-.2-.2Z"/></g><g id="goofy-3" data-name="goofy"><path class="cls-3" d="M136,96A40,40,0,1,1,96,56a40,40,0,0,1,40,40"/><path class="cls-4" d="M96,126a19.81,19.81,0,0,1-20-18h40A19.82,19.82,0,0,1,96,126Z"/><path class="cls-5" d="M67.51,86.08a11.2,11.2,0,1,1,11.2,11.2,11.2,11.2,0,0,1-11.2-11.2"/><path class="cls-6" d="M78.7,91.78a3.82,3.82,0,1,1,3.82,3.82,3.81,3.81,0,0,1-3.82-3.82"/><path class="cls-5" d="M124.19,86.08A11.2,11.2,0,1,0,113,97.28a11.2,11.2,0,0,0,11.2-11.2"/><path class="cls-6" d="M113,91.78a3.82,3.82,0,1,0-3.82,3.82A3.82,3.82,0,0,0,113,91.78"/><path class="cls-7" d="M75.11,104.61A17.61,17.61,0,1,1,92.72,87a17.63,17.63,0,0,1-17.61,17.61Zm0-32.14A14.52,14.52,0,1,0,89.63,87,14.54,14.54,0,0,0,75.11,72.48Z"/><path class="cls-7" d="M116.89,104.61A17.61,17.61,0,1,1,134.5,87a17.63,17.63,0,0,1-17.61,17.61Zm0-32.14A14.52,14.52,0,1,0,131.41,87a14.54,14.54,0,0,0-14.53-14.52Z"/><path class="cls-7" d="M100,86.26h-8a1.55,1.55,0,0,1,0-3.09h8a1.55,1.55,0,0,1,0,3.09Z"/></g></g></g></svg>