<svg xmlns="http://www.w3.org/2000/svg" viewBox="0 0 192 192"><defs><style>.cls-1{fill:#ec407a;}.cls-2{fill:#263238;opacity:0.15;}.cls-3{fill:#ffca28;}.cls-4{fill:#039be5;}.cls-5{fill:#0277bd;}.cls-6{fill:#4fc3f7;}.cls-7{fill:#e53935;}.cls-8{fill:#fff;}</style></defs><title>cool</title><g id="cool"><g id="cool-2" data-name="cool"><circle id="label" class="cls-1" cx="96" cy="96" r="88"/><g id="shadow"><path class="cls-2" d="M179.19,122.63l-.34-.34-.34-.34-.34-.34-.34-.34-.34-.34-.34-.34-.34-.34-.34-.34-.34-.34-.34-.34-.34-.34-.34-.34-.34-.34-.34-.34-.34-.34-.34-.34-.34-.34-.34-.34-.34-.34-.34-.34-.34-.34-.34-.34-.34-.34-.34-.34-.34-.34-.34-.34-.34-.34-.34-.34-.34-.34-.34-.34-.34-.34-.34-.34-.34-.34-.34-.34-.34-.34-.34-.34-.34-.34-.34-.34-.34-.34-.34-.34-.34-.34-.34-.34-.34-.34-.34-.34-.34-.34-.34-.34-.34-.34-.34-.34-.34-.34-.34-.34-.34-.34-.34-.34-.34-.34-.34-.34-.34-.34-.34-.34-.34-.34-.34-.34-.34-.34-.34-.34-.34-.34-.34-.34-.34-.34-.34-.34-.34-.34-.34-.34-.34-.34-.34-.34-.34-.34-.34-.34-.34-.34-.34-.34-.34-.34-.34-.34-.34-.34-.34-.34-.34-.34-.34-.34-.34-.34-.34-.34-.34-.34-.34-.34-.34-.34-.34-.34-.34-.34-.34-.34-.34-.34-.34-.34-.34-.34L149,92.4l-.34-.34-.34-.34L148,91.4l-.34-.34-.34-.34-.34-.34-.34-.34-.34-.34-.34-.34L145.6,89l-.34-.34-.34-.34L144.6,88l-.34-.34-.34-.34-.34-.34-.34-.34-.34-.34-.34-.34-.34-.34-.34-.34-.34-.34-.34-.34-.34-.34-.34-.34-.34-.34-.34-.34-.34-.34-.34-.34-.34-.34-.34-.34-.34-.34-.34-.34-.34-.34-.34-.34-.34-.34-.34-.34-.34-.34-.34-.34-.34-.34-.34-.34-.34-.34-.34-.34-.34-.34-.34-.34-.34-.34-.34-.34-.34-.34-.34-.34-.34-.34-.34-.34-.34-.34-.34-.34-.34-.34-.34-.34-.34-.34-.34-.34-.34-.34-.34-.34-.34-.34-.34-.34-.34-.34-.34-.34-.34-.34-.34-.34-.34-.34-.34-.34-.34-.34-.34-.34-.34-.34-.34-.34-.34-.34-.34-.34a40,40,0,1,0-56.56,56.56l.34.34.34.34.34.34.34.34.34.34.34.34.34.34.34.34.34.34.34.34.34.34.34.34.34.34.34.34.34.34.34.34.34.34.34.34.34.34.34.34.34.34.34.34.34.34.34.34.34.34.34.34.34.34.34.34.34.34.34.34.34.34.34.34.34.34.34.34.34.34.34.34.34.34.34.34.34.34.34.34.34.34.34.34.34.34.34.34.34.34.34.34.34.34.34.34.34.34.34.34.34.34.34.34.34.34.34.34.34.34.34.34.34.34.34.34.34.34.34.34.34.34.34.34.34.34.34.34.34.34.34.34.34.34.34.34.34.34.34.34.34.34.34.34.34.34.34.34.34.34.34.34.34.34.34.34.34.34.34.34.34.34.34.34.34.34.34.34.34.34.34.34.34.34.34.34.34.34.34.34.34.34.34.34.34.34.34.34.34.34.34.34.34.34.34.34.34.34.34.34.34.34.34.34.34.34.34.34.34.34.34.34.34.34.34.34.34.34.34.34.34.34.34.34.34.34.34.34.34.34.34.34.34.34.34.34.34.34.34.34.34.34.34.34.34.34.34.34.34.34.34.34.34.34.34.34.34.34.34.34.34.34.34.34.34.34.34.34.34.34.34.34.34.34.34.34.34.34.34.34.34.34.34.34.34.34.34.34.34.34.34.34.34.34.34.34.34.34.34.34.34.34.34.34.34.34.34.34.34.34.34.34.34.34.34.34.34.34.34.34.34.34.34.34.34.34.34.34.2.2a88.21,88.21,0,0,0,56.56-56.56l-.2-.2Z"/></g><g id="cool-3" data-name="cool"><path class="cls-3" d="M136,96A40,40,0,1,1,96,56a40,40,0,0,1,40,40"/><circle class="cls-4" cx="77.2" cy="82.92" r="14.46"/><path class="cls-5" d="M77.2,99.12a16.2,16.2,0,1,1,16.2-16.2,16.22,16.22,0,0,1-16.2,16.2Zm0-28.93A12.73,12.73,0,1,0,89.93,82.92,12.75,12.75,0,0,0,77.2,70.19Z"/><path class="cls-4" d="M129.27,82.92A14.46,14.46,0,1,1,114.8,68.46,14.46,14.46,0,0,1,129.27,82.92Z"/><path class="cls-5" d="M114.8,99.12A16.2,16.2,0,1,1,131,82.92a16.22,16.22,0,0,1-16.2,16.2Zm0-28.93a12.73,12.73,0,1,0,12.73,12.73A12.75,12.75,0,0,0,114.8,70.19Z"/><path class="cls-5" d="M99.63,82.59H92.45a1.73,1.73,0,0,1,0-3.47h7.18a1.73,1.73,0,0,1,0,3.47Z"/><path class="cls-6" d="M71.33,85.5a1.73,1.73,0,0,1-1.2-3l4.51-4.32A1.73,1.73,0,0,1,77,80.69L72.52,85a1.73,1.73,0,0,1-1.2.48Z"/><path class="cls-6" d="M77.35,88.38a1.73,1.73,0,0,1-1.2-3l7.53-7.2a1.73,1.73,0,0,1,2.4,2.51l-7.53,7.2a1.73,1.73,0,0,1-1.2.48Z"/><path class="cls-6" d="M107.13,85.5a1.73,1.73,0,0,1-1.2-3l4.52-4.32a1.73,1.73,0,0,1,2.4,2.51L108.32,85a1.73,1.73,0,0,1-1.2.48Z"/><path class="cls-6" d="M113.15,88.38a1.73,1.73,0,0,1-1.2-3l7.53-7.2a1.73,1.73,0,1,1,2.4,2.51l-7.53,7.2a1.73,1.73,0,0,1-1.2.48Z"/><path class="cls-7" d="M115.5,110.91H76a21.15,21.15,0,0,0,19.75,14.37c10.17,0,18.6-7.77,20.25-16.35A17.75,17.75,0,0,1,115.5,110.91Z"/><path class="cls-8" d="M116.19,108.81c.05-.27.1-.55.14-.83s.06-.41.08-.62c0-.51.09-1,.09-1.55h-41c0,.52,0,1,.09,1.55,0,.2,0,.41.08.62s.09.57.15.85a18.24,18.24,0,0,0,.47,1.86l0,.09h39.38A17.7,17.7,0,0,0,116.19,108.81Z"/></g></g></g></svg>